<?xml version="1.0" encoding="UTF-8"?>
<svg version="1.1" xmlns="http://www.w3.org/2000/svg" width="595" height="691">
<path d="M0 0 C196.35 0 392.7 0 595 0 C595 228.03 595 456.06 595 691 C398.65 691 202.3 691 0 691 C0 462.97 0 234.94 0 0 Z " fill="#1D1D1D" transform="translate(0,0)"/>
<path d="M0 0 C39.27 0 78.54 0 119 0 C123.07967787 11.07341137 127.11552261 22.07203961 130.79727173 33.26963806 C132.06994854 37.13915146 133.35434582 41.00478526 134.63671875 44.87109375 C135.04291695 46.09712437 135.04291695 46.09712437 135.45732117 47.34792328 C138.70738227 57.14997782 142.01007589 66.93424079 145.3125 76.71875 C145.94639398 78.59781107 146.5802643 80.47688012 147.21411133 82.35595703 C149.14208999 88.07085777 151.07096319 93.78545636 153 99.5 C163.01279354 129.16171789 172.97513113 158.83923624 182.83911133 188.55078125 C189.42597083 208.39117038 196.11034614 228.19832272 202.8125 248 C203.05208183 248.70793827 203.29166367 249.41587654 203.53850555 250.14526749 C208.42721259 264.59032343 213.3186107 279.03438512 218.26171875 293.4609375 C224.4774312 311.60383394 230.61671312 329.76654669 236.5625 348 C236.84714111 348.87098328 237.13178223 349.74196655 237.42504883 350.63934326 C240.50831286 360.08595383 243.51351951 369.55449019 246.40234375 379.0625 C246.66374649 379.91416748 246.92514923 380.76583496 247.19447327 381.64331055 C247.43185715 382.43261963 247.66924103 383.22192871 247.91381836 384.03515625 C248.12421249 384.7300415 248.33460663 385.42492676 248.55137634 386.14086914 C249 388 249 388 249 391 C250.65 391 252.3 391 254 391 C254.16870605 390.36690918 254.33741211 389.73381836 254.51123047 389.08154297 C256.58299942 381.3881805 258.82894683 373.75408445 261.125 366.125 C261.4653125 364.98675781 261.805625 363.84851563 262.15625 362.67578125 C263.4262278 358.4470254 264.70973244 354.22260385 266 350 C266.4652861 348.47656982 266.4652861 348.47656982 266.93997192 346.92236328 C272.59755566 328.44189441 278.54607956 310.07578113 284.6875 291.75 C285.34703279 289.7768475 286.00608255 287.80353404 286.6651268 285.83021832 C291.22020052 272.19390362 295.80580196 258.56838545 300.47729492 244.97143555 C301.10987608 243.12679475 301.74244205 241.28214875 302.375 239.4375 C302.60377209 238.77224619 302.83254417 238.10699238 303.06824875 237.42157936 C307.01539704 225.93728962 310.84203052 214.41959245 314.573452 202.86353302 C322.13597301 179.463034 329.95864341 156.152505 337.82717133 132.85347748 C339.61950553 127.54491036 341.40942072 122.23552756 343.19970703 116.92626953 C346.43750054 107.32560623 349.6777025 97.72575785 352.91900826 88.12627983 C355.52152956 80.41827071 358.12198469 72.70956647 360.72158623 65.0005722 C363.25399119 57.49101853 365.78791155 49.98197726 368.32281494 42.4732666 C369.34975087 39.43134354 370.37621394 36.38926157 371.40228271 33.3470459 C372.58824304 29.83106266 373.77555904 26.31554016 374.96395874 22.80038071 C375.59135298 20.94364329 376.21745718 19.08647011 376.84350586 17.22927856 C377.21854248 16.12091644 377.5935791 15.01255432 377.97998047 13.87060547 C378.3001413 12.92265106 378.62030212 11.97469666 378.95016479 10.99801636 C380.2413098 7.31089116 381.6282821 3.65791439 383 0 C420.95 0 458.9 0 498 0 C496.16172281 6.12759063 494.31799441 12.1690213 492.1875 18.1875 C491.89601074 19.01531982 491.60452148 19.84313965 491.30419922 20.69604492 C482.56409153 45.43664141 473.60894614 70.10178933 464.67800903 94.77392578 C459.12488737 110.11486959 453.58695715 125.46121043 448.0625 140.8125 C447.69017242 141.84707336 447.31784485 142.88164673 446.93423462 143.9475708 C444.28897283 151.29819458 441.64440253 158.64906706 439 166 C435.97964607 174.39600588 432.95898197 182.79189999 429.9375 191.1875 C429.56472931 192.22331207 429.19195862 193.25912415 428.80789185 194.32632446 C423.03555472 210.36396066 417.24380672 226.394505 411.44244385 242.42166138 C406.05095966 257.31745012 400.67577481 272.21903188 395.3125 287.125 C388.86362767 305.04792938 382.40792927 322.96838274 375.94483566 340.88618851 C375.24951644 342.8138406 374.55421497 344.74149909 373.85891724 346.66915894 C370.3367545 356.43402375 366.81423927 366.19876141 363.29168701 375.96348572 C348.32858395 417.44078313 348.32858395 417.44078313 333.38049316 458.92349243 C332.64941234 460.95346335 331.91821883 462.98339369 331.18688965 465.01327515 C325.42811996 480.99832425 319.71464256 496.99900084 314 513 C270.77 513 227.54 513 183 513 C164.01474795 460.51136197 164.01474795 460.51136197 157.88037109 442.56445312 C156.48295146 438.49387746 155.05716105 434.43346201 153.625 430.375 C153.3978833 429.72934082 153.1707666 429.08368164 152.93676758 428.41845703 C151.62369116 424.70343569 150.2514109 421.01357531 148.86181641 417.32666016 C146.97697431 412.23812045 145.18893552 407.11413468 143.375 402 C140.17057572 392.98667703 136.89731441 384.00531892 133.5 375.0625 C129.70258546 365.04495066 126.18406504 354.94372139 122.71508789 344.80834961 C118.85314951 333.53344383 114.83327121 322.32139212 110.76818848 311.1184082 C108.14820943 303.8933778 105.53547145 296.66571972 102.92092896 289.4387207 C102.18149382 287.39490661 101.44197141 285.3511241 100.70236206 283.30737305 C94.1882066 265.30648709 87.71042365 247.29275306 81.24992371 229.27255249 C79.00551735 223.01302702 76.75416497 216.75601782 74.5 210.5 C65.63457451 185.88650605 56.80115627 161.26154697 48 136.625 C47.69084656 135.759888 47.38169312 134.894776 47.06317139 134.00344849 C46.16673593 131.49462141 45.27076134 128.98563034 44.375 126.4765625 C44.08968414 125.67780197 43.80436829 124.87904144 43.51040649 124.05607605 C42.11971293 120.15800607 40.73724679 116.25732963 39.37109375 112.35058594 C37.01663098 105.62142908 34.62683881 98.92982769 31.92529297 92.33007812 C30.14986736 87.85919106 28.62132339 83.29991224 27.0625 78.75 C22.41039505 65.23185935 17.56869673 51.78910148 12.625 38.375 C9.31543142 29.36814592 6.0154854 20.35792089 2.8125 11.3125 C2.52133301 10.50022949 2.23016602 9.68795898 1.93017578 8.85107422 C0.8517437 5.77931894 0 3.28078162 0 0 Z " fill="#000000" transform="translate(87,82)"/>
<path d="M0 0 C0.33 0 0.66 0 1 0 C1 21.45 1 42.9 1 65 C-7.25 65 -15.5 65 -24 65 C-20.62527431 53.75091437 -20.62527431 53.75091437 -19.16235352 50.00024414 C-18.67153038 48.73326439 -18.67153038 48.73326439 -18.17079163 47.44068909 C-17.82696945 46.56436325 -17.48314728 45.68803741 -17.12890625 44.78515625 C-16.58350441 43.38057411 -16.58350441 43.38057411 -16.02708435 41.94761658 C-14.87581874 38.98449681 -13.71943445 36.02341043 -12.5625 33.0625 C-11.41006737 30.10480744 -10.25875448 27.14668491 -9.10862732 24.18809509 C-8.39667971 22.35754827 -7.68329849 20.52755805 -6.96815491 18.69825745 C-4.55222302 12.49837579 -2.2509547 6.26159192 0 0 Z " fill="#000000" transform="translate(594,531)"/>
</svg>
